<svg xmlns="http://www.w3.org/2000/svg" width="512" height="512"><path fill="#388dd2" d="M447.905 88.731H336.261c-38.413 0-71.796 26.595-80.181 64.128-8.465-37.534-41.767-64.128-80.181-64.128H64.334c-21.163 0-38.333 17.17-38.333 38.333v196.299c0 21.161 17.17 38.331 38.333 38.331h71.636c81.617 0 105.975 19.487 117.634 59.897.56 2.236 4.153 2.236 4.79 0 11.742-40.41 36.099-59.897 117.637-59.897h71.636c21.163 0 38.333-17.17 38.333-38.331V127.144c-.001-21.083-17.013-38.253-38.095-38.413z"/><path fill="#fff" d="M219.264 300.682a2.776 2.776 0 0 1-2.795 2.793H88.451a2.777 2.777 0 0 1-2.795-2.793v-18.288a2.779 2.779 0 0 1 2.795-2.797h128.098a2.78 2.78 0 0 1 2.796 2.797v18.288h-.081zm0-48.636a2.777 2.777 0 0 1-2.795 2.795H88.451a2.778 2.778 0 0 1-2.795-2.795v-18.288a2.78 2.78 0 0 1 2.795-2.796h128.098a2.778 2.778 0 0 1 2.796 2.796v18.288h-.081zm0-48.634a2.776 2.776 0 0 1-2.795 2.794H88.451a2.778 2.778 0 0 1-2.795-2.794v-18.289a2.778 2.778 0 0 1 2.795-2.795h128.098a2.778 2.778 0 0 1 2.796 2.795v18.289h-.081zm207.079 97.189a2.778 2.778 0 0 1-2.795 2.797H295.531a2.779 2.779 0 0 1-2.796-2.797v-18.288c0-1.517 1.2-2.793 2.796-2.793h128.098a2.776 2.776 0 0 1 2.793 2.793v18.288h-.079zm0-48.634a2.777 2.777 0 0 1-2.795 2.794H295.531a2.777 2.777 0 0 1-2.796-2.794v-18.288c0-1.518 1.2-2.795 2.796-2.795h128.098a2.777 2.777 0 0 1 2.793 2.795v18.288h-.079zm0-48.635a2.777 2.777 0 0 1-2.795 2.794H295.531a2.777 2.777 0 0 1-2.796-2.794v-18.208c0-1.518 1.2-2.795 2.796-2.795h128.098a2.777 2.777 0 0 1 2.793 2.795v18.208h-.079z"/></svg>