<svg
xmlns="http://www.w3.org/2000/svg"
width="32"
height="32"
viewBox="0 0 32 32"
fill="none">
<path
  fill-rule="evenodd"
  clip-rule="evenodd"
  d="M5.78399 26.6672H10.4641V11.5562H5.78399V26.6672ZM8.1016 9.57685C6.57281 9.57685 5.33398 8.32828 5.33398 6.78845C5.33398 5.24856 6.57281 4 8.1016 4C9.6304 4 10.8685 5.24856 10.8685 6.78845C10.8685 8.32828 9.6304 9.57685 8.1016 9.57685ZM28.0003 26.667H23.3431V18.7347C23.3431 16.5598 22.5167 15.3445 20.7953 15.3445C18.9227 15.3445 17.9443 16.6092 17.9443 18.7347V26.667H13.4561V11.556H17.9443V13.5915C17.9443 13.5915 19.2939 11.0943 22.5005 11.0943C25.7056 11.0943 28.0003 13.0516 28.0003 17.0996L28.0003 26.667Z"
  fill="black"
/>
</svg>