<svg
xmlns="http://www.w3.org/2000/svg"
width="32"
height="32"
viewBox="0 0 32 32"
fill="none">
<path
  d="M9.63828 18.4064L3.54064 16.3547C3.54064 16.3547 2.8119 16.0494 3.04655 15.357C3.09486 15.2143 3.1923 15.0928 3.4838 14.884C4.83487 13.9115 28.4911 5.13089 28.4911 5.13089C28.4911 5.13089 29.159 4.89846 29.553 5.05306C29.6504 5.08421 29.7381 5.14154 29.8071 5.21917C29.876 5.29681 29.9238 5.39197 29.9455 5.49492C29.988 5.67675 30.0058 5.86382 29.9983 6.05073C29.9965 6.21242 29.9775 6.36229 29.9631 6.5973C29.8191 8.99795 25.5074 26.9148 25.5074 26.9148C25.5074 26.9148 25.2495 27.9632 24.3252 27.9991C24.0981 28.0067 23.8718 27.9669 23.6599 27.8823C23.4479 27.7976 23.2547 27.6697 23.0916 27.5063C21.2779 25.8952 15.0091 21.5445 13.6238 20.5877C13.5926 20.5657 13.5663 20.5371 13.5467 20.5037C13.5271 20.4703 13.5146 20.433 13.5102 20.3942C13.4908 20.2934 13.597 20.1684 13.597 20.1684C13.597 20.1684 24.5126 10.1487 24.8031 9.09686C24.8256 9.01536 24.7406 8.97516 24.6265 9.01085C23.9015 9.28629 11.3335 17.4825 9.94644 18.387C9.84659 18.4182 9.74106 18.4249 9.63828 18.4064Z"
  fill="black"
/>
</svg>