<svg xmlns="http://www.w3.org/2000/svg" width="224" height="30" viewBox="0 0 224 30" fill="none">
    <path fill-rule="evenodd" clip-rule="evenodd" d="M16.1661 0.617189L16.167 0.617188C22.8389 0.617188 26.9046 4.04912 28.8106 6.29235C30.5674 8.36484 31.5868 11.473 32.1898 14.2677C32.7956 17.0755 32.9952 19.6364 33.0739 20.6636C33.1156 21.165 32.7158 21.5878 32.2209 21.5878H28.6462C28.6459 21.588 28.6456 21.5883 28.6453 21.5886C28.6436 21.5903 28.6425 21.5922 28.6418 21.5938C28.6415 21.5946 28.6413 21.5951 28.6412 21.5955C28.6412 21.5954 28.6412 21.5958 28.6412 21.5955L28.6768 28.1532V28.1544C28.6768 28.8298 28.1245 29.3724 27.4446 29.3724H22.7682V28.519H27.4446C27.6628 28.519 27.823 28.3491 27.8235 28.1553C27.8235 28.155 27.8235 28.1547 27.8235 28.1544L27.7878 21.5971V21.596C27.7878 21.1343 28.1623 20.7344 28.6423 20.7344H32.2209C32.2208 20.7345 32.2212 20.7344 32.2209 20.7344C32.221 20.7344 32.2219 20.7342 32.2222 20.734C32.2225 20.7338 32.2228 20.7336 32.223 20.7334C32.2229 20.7334 32.2232 20.7332 32.223 20.7334L32.2233 20.7323L32.2232 20.7304C32.145 19.7105 31.9488 17.197 31.3556 14.4477C30.7592 11.6838 29.7752 8.75029 28.1603 6.8449C26.3594 4.72541 22.5123 1.47071 16.1675 1.47054C12.9832 1.47759 9.14123 2.59038 6.1056 5.08406C3.08348 7.56667 0.843039 11.4308 0.853392 16.9968C0.860323 18.9808 1.41022 20.9804 2.2478 22.8233C2.80241 24.0364 3.59346 25.2221 4.70147 25.9433L4.23595 26.6585C2.93455 25.8114 2.05752 24.4595 1.47154 23.1778L1.47116 23.1769C0.598023 21.256 0.00743098 19.1355 3.96949e-05 16.9994C-0.0108969 11.1739 2.34668 7.06756 5.56392 4.42467C8.76762 1.79292 12.8062 0.624509 16.1661 0.617189Z" fill="black"/>
    <path d="M16.1231 17.4349C16.8476 17.4349 17.4348 16.8636 17.4348 16.1589C17.4348 15.4541 16.8476 14.8828 16.1231 14.8828C15.3988 14.8828 14.8115 15.4541 14.8115 16.1589C14.8115 16.8636 15.3988 17.4349 16.1231 17.4349Z" fill="#FF0C00"/>
    <path fill-rule="evenodd" clip-rule="evenodd" d="M16.1234 12.3495C13.9384 12.3495 12.1873 14.0728 12.1873 16.1644C12.1873 18.256 13.9384 19.9793 16.1234 19.9793C16.3591 19.9793 16.5501 20.1703 16.5501 20.4059C16.5501 20.6416 16.3591 20.8326 16.1234 20.8326C13.4894 20.8326 11.334 18.7492 11.334 16.1644C11.334 13.5796 13.4894 11.4961 16.1234 11.4961C18.7574 11.4961 20.9129 13.5796 20.9129 16.1644C20.9129 17.448 20.3769 18.61 19.5248 19.4544C19.3574 19.6202 19.0872 19.619 18.9213 19.4516C18.7554 19.2842 18.7567 19.0141 18.9241 18.8482C19.626 18.1528 20.0595 17.2047 20.0595 16.1644C20.0595 14.0728 18.3084 12.3495 16.1234 12.3495Z" fill="black"/>
    <path fill-rule="evenodd" clip-rule="evenodd" d="M16.1242 9.49164C12.434 9.49164 9.45746 12.3965 9.45746 15.9659C9.45746 17.3893 9.92946 18.7033 10.7309 19.772L10.311 20.0869C9.44439 18.9314 8.93262 17.5079 8.93262 15.9659C8.93262 12.0928 12.1581 8.9668 16.1242 8.9668C19.0798 8.9668 21.6261 10.7036 22.7302 13.2007L22.2501 13.413C21.2298 11.1053 18.8714 9.49164 16.1242 9.49164Z" fill="black"/>
    <path fill-rule="evenodd" clip-rule="evenodd" d="M16.13 6.77684C10.7859 6.77684 6.46923 10.9863 6.46923 16.1596C6.46923 18.2735 7.1828 20.2206 8.39605 21.7874L7.98105 22.1087C6.69928 20.4534 5.94434 18.3942 5.94434 16.1596C5.94434 10.6825 10.5101 6.25195 16.13 6.25195C21.5967 6.25195 26.0738 10.4485 26.3011 15.7348L25.7767 15.7573C25.562 10.764 21.3278 6.77684 16.13 6.77684Z" fill="black"/>
    <path fill-rule="evenodd" clip-rule="evenodd" d="M19.0762 25.3224C22.3332 24.3224 24.7681 21.7327 25.5861 18.6133L26.0938 18.7464C25.2294 22.0427 22.66 24.7711 19.2302 25.8242L19.0762 25.3224Z" fill="black"/>
    <path fill-rule="evenodd" clip-rule="evenodd" d="M18.0449 22.7218C20.0452 22.3122 21.6468 20.9062 22.3138 19.0957L22.8064 19.2771C22.0762 21.2591 20.3274 22.7902 18.1502 23.236L18.0449 22.7218Z" fill="black"/>
    <path fill-rule="evenodd" clip-rule="evenodd" d="M16.1246 4.09911C9.2692 4.09911 3.71923 9.50608 3.71923 16.1551C3.71923 17.2641 3.87264 18.3309 4.15856 19.3491L3.65322 19.491C3.35459 18.4276 3.19434 17.313 3.19434 16.1551C3.19434 9.20247 8.99327 3.57422 16.1246 3.57422C21.0035 3.57422 25.2535 6.19948 27.4524 10.0877L26.9956 10.3461C24.8887 6.62079 20.8124 4.09911 16.1246 4.09911Z" fill="black"/>
    <path d="M27.2236 11.2248C27.7354 11.2248 28.1503 10.8194 28.1503 10.3194C28.1503 9.81945 27.7354 9.41406 27.2236 9.41406C26.7118 9.41406 26.2969 9.81945 26.2969 10.3194C26.2969 10.8194 26.7118 11.2248 27.2236 11.2248Z" fill="black"/>
    <path d="M26.0479 16.1076C26.5596 16.1076 26.9746 15.7022 26.9746 15.2022C26.9746 14.7022 26.5596 14.2969 26.0479 14.2969C25.536 14.2969 25.1211 14.7022 25.1211 15.2022C25.1211 15.7022 25.536 16.1076 26.0479 16.1076Z" fill="black"/>
    <path d="M22.4912 14.3048C23.003 14.3048 23.4179 13.8995 23.4179 13.3995C23.4179 12.8995 23.003 12.4941 22.4912 12.4941C21.9794 12.4941 21.5645 12.8995 21.5645 13.3995C21.5645 13.8995 21.9794 14.3048 22.4912 14.3048Z" fill="black"/>
    <path d="M26.034 19.2211C26.478 19.1557 26.7864 18.7523 26.7227 18.3199C26.659 17.8876 26.2475 17.5901 25.8035 17.6555C25.3594 17.7209 25.0511 18.1244 25.1148 18.5567C25.1784 18.989 25.59 19.2865 26.034 19.2211Z" fill="black"/>
    <path d="M22.5917 19.806C22.9456 19.7882 23.2185 19.4964 23.2013 19.1543C23.184 18.8123 22.8832 18.5494 22.5293 18.5673C22.1754 18.5851 21.9025 18.8768 21.9197 19.219C21.9369 19.561 22.2378 19.8239 22.5917 19.806Z" fill="black"/>
    <path d="M18.1279 23.599C18.4817 23.5812 18.7546 23.2895 18.7374 22.9473C18.7202 22.6052 18.4193 22.3424 18.0654 22.3602C17.7115 22.3781 17.4386 22.6698 17.4559 23.0119C17.4731 23.354 17.7739 23.6168 18.1279 23.599Z" fill="black"/>
    <path d="M19.1075 26.4838C19.5438 26.4196 19.8467 26.0234 19.7842 25.5987C19.7216 25.1742 19.3173 24.8821 18.8811 24.9464C18.4449 25.0107 18.1419 25.4069 18.2045 25.8314C18.2669 26.256 18.6713 26.548 19.1075 26.4838Z" fill="black"/>
    <path d="M3.98367 20.5118C4.5388 20.5118 4.98882 20.0746 4.98882 19.5352C4.98882 18.9958 4.5388 18.5586 3.98367 18.5586C3.42854 18.5586 2.97852 18.9958 2.97852 19.5352C2.97852 20.0746 3.42854 20.5118 3.98367 20.5118Z" fill="black"/>
    <path d="M3.98434 27.2002C4.69302 27.2002 5.26751 26.6416 5.26751 25.9526C5.26751 25.2636 4.69302 24.7051 3.98434 24.7051C3.27567 24.7051 2.70117 25.2636 2.70117 25.9526C2.70117 26.6416 3.27567 27.2002 3.98434 27.2002Z" fill="black"/>
    <path d="M8.18976 23.0353C8.74484 23.0353 9.19484 22.5981 9.19484 22.0587C9.19484 21.5193 8.74484 21.082 8.18976 21.082C7.63459 21.082 7.18457 21.5193 7.18457 22.0587C7.18457 22.5981 7.63459 23.0353 8.18976 23.0353Z" fill="black"/>
    <path d="M10.4787 20.6915C11.0339 20.6915 11.4839 20.2543 11.4839 19.7149C11.4839 19.1755 11.0339 18.7383 10.4787 18.7383C9.92363 18.7383 9.47363 19.1755 9.47363 19.7149C9.47363 20.2543 9.92363 20.6915 10.4787 20.6915Z" fill="black"/>
    <path d="M15.554 21.3185C16.1091 21.3185 16.5591 20.8813 16.5591 20.3419C16.5591 19.8025 16.1091 19.3652 15.554 19.3652C14.9988 19.3652 14.5488 19.8025 14.5488 20.3419C14.5488 20.8813 14.9988 21.3185 15.554 21.3185Z" fill="black"/>
    <path fill-rule="evenodd" clip-rule="evenodd" d="M15.0359 20.6758C15.036 20.6757 15.036 20.6755 15.4619 20.7007C15.8879 20.7257 15.8879 20.7257 15.8879 20.7257L15.8877 20.7288C15.8876 20.7313 15.8873 20.7353 15.8871 20.7407C15.8865 20.7514 15.8857 20.7678 15.8847 20.7895C15.8827 20.833 15.8801 20.8976 15.8776 20.9809C15.8727 21.1475 15.8683 21.3881 15.8706 21.6815C15.8752 22.2693 15.9067 23.0636 16.0135 23.8952C16.1206 24.73 16.3014 25.5842 16.5963 26.3004C16.8936 27.0225 17.2849 27.5519 17.7803 27.8167L17.788 27.8208L17.7956 27.8253C18.4715 28.2232 19.4117 28.4014 20.368 28.475C21.0269 28.5257 21.6436 28.5252 22.1618 28.5247C22.3999 28.5246 22.6171 28.5243 22.8081 28.5292L22.7866 29.3823C22.6306 29.3783 22.4352 29.3784 22.2119 29.3785C21.6816 29.3788 20.9942 29.3791 20.3026 29.3259C19.3174 29.25 18.2188 29.062 17.3702 28.565C16.6295 28.1658 16.1383 27.4295 15.8072 26.6253C15.4726 25.8124 15.2791 24.8764 15.167 24.0039C15.0546 23.1282 15.022 22.298 15.0173 21.6882C15.0149 21.3827 15.0194 21.1313 15.0246 20.9555C15.0273 20.8676 15.0301 20.7985 15.0322 20.751C15.0333 20.7272 15.0342 20.7088 15.0349 20.6961C15.0352 20.6897 15.0355 20.6848 15.0356 20.6814L15.0359 20.6773L15.0359 20.6758Z" fill="black"/>
    <path d="M54.7773 24.6157L50.7158 16.608H53.5542C53.8004 16.608 54.0158 16.5465 54.2004 16.4234C54.385 16.3003 54.5389 16.1465 54.6619 15.9619C54.785 15.7619 54.8696 15.5465 54.9158 15.3157C54.9773 15.0849 55.0081 14.8619 55.0081 14.6465C55.0081 14.4157 54.9696 14.1849 54.8927 13.9542C54.8312 13.708 54.7312 13.4849 54.5927 13.2849C54.4696 13.0696 54.3081 12.9003 54.1081 12.7773C53.9235 12.6388 53.7158 12.5696 53.485 12.5696H47.3696V24.6157H44.9004V10.2157H53.7619C54.2696 10.2157 54.7542 10.3311 55.2158 10.5619C55.6773 10.7773 56.0773 11.0849 56.4158 11.4849C56.7696 11.8849 57.0465 12.3619 57.2465 12.9157C57.4619 13.4542 57.5696 14.0388 57.5696 14.6696C57.5696 15.1619 57.4927 15.6465 57.3389 16.1234C57.185 16.5849 56.9696 17.008 56.6927 17.3926C56.4312 17.7619 56.1158 18.0849 55.7465 18.3619C55.3773 18.6234 54.985 18.8003 54.5696 18.8926L57.4773 24.6157H54.7773ZM59.6775 17.4157C59.6775 16.4157 59.8622 15.4773 60.2314 14.6003C60.616 13.708 61.1314 12.9388 61.7775 12.2926C62.4391 11.6311 63.216 11.108 64.1083 10.7234C65.0006 10.3388 65.9622 10.1465 66.9929 10.1465C68.0083 10.1465 68.9622 10.3388 69.8545 10.7234C70.7468 11.108 71.516 11.6311 72.1622 12.2926C72.8237 12.9388 73.3468 13.708 73.7314 14.6003C74.116 15.4773 74.3083 16.4157 74.3083 17.4157C74.3083 18.4157 74.116 19.3619 73.7314 20.2542C73.3468 21.1311 72.8237 21.9003 72.1622 22.5619C71.516 23.208 70.7468 23.7234 69.8545 24.108C68.9622 24.4926 68.0083 24.6849 66.9929 24.6849C65.9622 24.6849 65.0006 24.4926 64.1083 24.108C63.216 23.7234 62.4391 23.208 61.7775 22.5619C61.1314 21.9003 60.616 21.1311 60.2314 20.2542C59.8622 19.3619 59.6775 18.4157 59.6775 17.4157ZM62.1468 17.4388C62.1468 18.0849 62.2699 18.7003 62.516 19.2849C62.7775 19.8696 63.1237 20.3849 63.5545 20.8311C64.0006 21.2619 64.516 21.608 65.1006 21.8696C65.7006 22.1157 66.3314 22.2388 66.9929 22.2388C67.6391 22.2388 68.2545 22.1157 68.8391 21.8696C69.4391 21.608 69.9622 21.2619 70.4083 20.8311C70.8698 20.3849 71.2314 19.8696 71.4929 19.2849C71.7545 18.7003 71.8852 18.0849 71.8852 17.4388C71.8852 16.7926 71.7545 16.1773 71.4929 15.5926C71.2314 15.008 70.8775 14.4926 70.4314 14.0465C69.9852 13.6003 69.4622 13.2465 68.8622 12.9849C68.2775 12.7234 67.6622 12.5926 67.016 12.5926C66.3391 12.5926 65.7083 12.7234 65.1237 12.9849C64.5391 13.2465 64.0237 13.6003 63.5775 14.0465C63.1314 14.4926 62.7775 15.008 62.516 15.5926C62.2699 16.1773 62.1468 16.7926 62.1468 17.4388ZM76.9242 24.6157V10.2157H85.7858C86.2935 10.2157 86.7781 10.3311 87.2396 10.5619C87.7012 10.7773 88.1012 11.0849 88.4396 11.4849C88.7935 11.8849 89.0704 12.3619 89.2704 12.9157C89.4858 13.4542 89.5935 14.0388 89.5935 14.6696C89.5935 15.2849 89.4704 15.8234 89.2242 16.2849C88.9781 16.7465 88.7165 17.1388 88.4396 17.4619C88.7165 17.8003 88.9781 18.1926 89.2242 18.6388C89.4704 19.0849 89.5935 19.5926 89.5935 20.1619C89.5935 20.7926 89.4858 21.3849 89.2704 21.9388C89.0704 22.4773 88.7935 22.9465 88.4396 23.3465C88.1012 23.7465 87.7012 24.0619 87.2396 24.2926C86.7781 24.508 86.2935 24.6157 85.7858 24.6157H76.9242ZM83.1089 16.2157H86.1089C86.355 16.0003 86.5627 15.7542 86.7319 15.4773C86.9165 15.1849 87.0089 14.908 87.0089 14.6465C87.0089 14.4157 86.9704 14.1849 86.8935 13.9542C86.8319 13.708 86.7319 13.4849 86.5935 13.2849C86.4704 13.0696 86.3165 12.9003 86.1319 12.7773C85.9473 12.6388 85.7396 12.5696 85.5089 12.5696H79.3935V22.2619H85.555C85.7858 22.2619 85.9935 22.2003 86.1781 22.0773C86.3627 21.9388 86.5165 21.7696 86.6396 21.5696C86.7627 21.3542 86.855 21.1311 86.9165 20.9003C86.9781 20.6542 87.0089 20.4157 87.0089 20.1849C87.0089 19.9234 86.9165 19.6465 86.7319 19.3542C86.5627 19.0619 86.3473 18.808 86.0858 18.5926H83.1089V16.2157ZM91.7912 17.4157C91.7912 16.4157 91.9758 15.4773 92.345 14.6003C92.7296 13.708 93.245 12.9388 93.8912 12.2926C94.5527 11.6311 95.3296 11.108 96.2219 10.7234C97.1142 10.3388 98.0758 10.1465 99.1065 10.1465C100.122 10.1465 101.076 10.3388 101.968 10.7234C102.86 11.108 103.63 11.6311 104.276 12.2926C104.937 12.9388 105.46 13.708 105.845 14.6003C106.23 15.4773 106.422 16.4157 106.422 17.4157C106.422 18.4157 106.23 19.3619 105.845 20.2542C105.46 21.1311 104.937 21.9003 104.276 22.5619C103.63 23.208 102.86 23.7234 101.968 24.108C101.076 24.4926 100.122 24.6849 99.1065 24.6849C98.0758 24.6849 97.1142 24.4926 96.2219 24.108C95.3296 23.7234 94.5527 23.208 93.8912 22.5619C93.245 21.9003 92.7296 21.1311 92.345 20.2542C91.9758 19.3619 91.7912 18.4157 91.7912 17.4157ZM94.2604 17.4388C94.2604 18.0849 94.3835 18.7003 94.6296 19.2849C94.8912 19.8696 95.2373 20.3849 95.6681 20.8311C96.1142 21.2619 96.6296 21.608 97.2142 21.8696C97.8142 22.1157 98.445 22.2388 99.1065 22.2388C99.7527 22.2388 100.368 22.1157 100.953 21.8696C101.553 21.608 102.076 21.2619 102.522 20.8311C102.983 20.3849 103.345 19.8696 103.607 19.2849C103.868 18.7003 103.999 18.0849 103.999 17.4388C103.999 16.7926 103.868 16.1773 103.607 15.5926C103.345 15.008 102.991 14.4926 102.545 14.0465C102.099 13.6003 101.576 13.2465 100.976 12.9849C100.391 12.7234 99.7758 12.5926 99.1296 12.5926C98.4527 12.5926 97.8219 12.7234 97.2373 12.9849C96.6527 13.2465 96.1373 13.6003 95.6912 14.0465C95.245 14.4926 94.8912 15.008 94.6296 15.5926C94.3835 16.1773 94.2604 16.7926 94.2604 17.4388ZM107.347 10.2157H119.923V12.5696H114.847V24.6157H112.354V12.5696H107.347V10.2157ZM122.67 10.2157H135.017V12.5696H130.055V22.2619H135.017V24.6157H122.67V22.2619H127.563V12.5696H122.67V10.2157ZM135.939 17.4157C135.939 16.4157 136.131 15.4773 136.516 14.6003C136.9 13.708 137.416 12.9388 138.062 12.2926C138.723 11.6311 139.5 11.108 140.393 10.7234C141.285 10.3388 142.239 10.1465 143.254 10.1465C143.993 10.1465 144.7 10.2619 145.377 10.4926C146.054 10.7234 146.685 11.0465 147.27 11.4619C147.87 11.8619 148.4 12.3465 148.862 12.9157C149.339 13.4849 149.731 14.1157 150.039 14.808L148.031 16.1465C147.8 15.6388 147.516 15.1696 147.177 14.7388C146.839 14.308 146.462 13.9311 146.047 13.608C145.631 13.2849 145.185 13.0388 144.708 12.8696C144.247 12.6849 143.77 12.5926 143.277 12.5926C142.6 12.5926 141.962 12.7234 141.362 12.9849C140.777 13.2465 140.262 13.6003 139.816 14.0465C139.385 14.4926 139.039 15.008 138.777 15.5926C138.516 16.1773 138.385 16.7926 138.385 17.4388C138.385 18.0849 138.516 18.7003 138.777 19.2849C139.039 19.8696 139.385 20.3849 139.816 20.8311C140.262 21.2619 140.777 21.608 141.362 21.8696C141.962 22.1157 142.593 22.2388 143.254 22.2388C143.7 22.2388 144.139 22.1619 144.57 22.008C145.016 21.8542 145.439 21.6388 145.839 21.3619C146.254 21.0849 146.631 20.7619 146.97 20.3926C147.308 20.008 147.608 19.5849 147.87 19.1234L149.67 20.9234C148.931 22.0773 148.016 22.9926 146.923 23.6696C145.831 24.3465 144.608 24.6849 143.254 24.6849C142.239 24.6849 141.285 24.4926 140.393 24.108C139.5 23.7234 138.723 23.208 138.062 22.5619C137.416 21.9003 136.9 21.1311 136.516 20.2542C136.131 19.3619 135.939 18.4157 135.939 17.4157ZM152.376 22.2619H160.453C161.083 22.2619 161.545 22.0926 161.837 21.7542C162.13 21.4003 162.276 20.9542 162.276 20.4157C162.276 19.9542 162.137 19.5696 161.86 19.2619C161.599 18.9388 161.168 18.7157 160.568 18.5926V16.2157C161.137 16.2157 161.676 16.3311 162.183 16.5619C162.707 16.7773 163.16 17.0773 163.545 17.4619C163.93 17.8465 164.237 18.2926 164.468 18.8003C164.699 19.308 164.814 19.8465 164.814 20.4157C164.814 21.0465 164.714 21.6234 164.514 22.1465C164.314 22.6542 164.037 23.0926 163.683 23.4619C163.345 23.8311 162.945 24.1157 162.483 24.3157C162.022 24.5157 161.537 24.6157 161.03 24.6157H152.376V22.2619ZM164.583 12.5696H156.46C155.845 12.5696 155.391 12.7465 155.099 13.1003C154.807 13.4542 154.66 13.8926 154.66 14.4157C154.66 14.8926 154.791 15.2926 155.053 15.6157C155.33 15.9234 155.768 16.1388 156.368 16.2619V18.6157C155.783 18.6157 155.237 18.508 154.73 18.2926C154.222 18.0619 153.776 17.7542 153.391 17.3696C153.007 16.9849 152.699 16.5388 152.468 16.0311C152.253 15.5234 152.145 14.9849 152.145 14.4157C152.145 13.7849 152.245 13.2157 152.445 12.708C152.645 12.1849 152.914 11.7388 153.253 11.3696C153.591 11.0003 153.983 10.7157 154.43 10.5157C154.891 10.3157 155.383 10.2157 155.907 10.2157H164.583V12.5696Z" fill="black"/>
    <path d="M175.879 24.6163V10.2163H178.348V22.2624H186.84V24.6163H175.879ZM188.727 24.6163L196.665 8.80859L204.534 24.6163H193.088L194.704 22.2394H200.496L196.665 14.3471L191.565 24.6163H188.727ZM206.529 24.6163V10.2163H215.39C215.898 10.2163 216.383 10.3317 216.844 10.5624C217.306 10.7778 217.706 11.0855 218.044 11.4855C218.398 11.8855 218.675 12.3624 218.875 12.9163C219.09 13.4547 219.198 14.0394 219.198 14.6701C219.198 15.2855 219.075 15.824 218.829 16.2855C218.583 16.7471 218.321 17.1394 218.044 17.4624C218.321 17.8009 218.583 18.1932 218.829 18.6394C219.075 19.0855 219.198 19.5932 219.198 20.1624C219.198 20.7932 219.09 21.3855 218.875 21.9394C218.675 22.4778 218.398 22.9471 218.044 23.3471C217.706 23.7471 217.306 24.0624 216.844 24.2932C216.383 24.5086 215.898 24.6163 215.39 24.6163H206.529ZM212.714 16.2163H215.714C215.96 16.0009 216.167 15.7547 216.337 15.4778C216.521 15.1855 216.614 14.9086 216.614 14.6471C216.614 14.4163 216.575 14.1855 216.498 13.9547C216.437 13.7086 216.337 13.4855 216.198 13.2855C216.075 13.0701 215.921 12.9009 215.737 12.7778C215.552 12.6394 215.344 12.5701 215.114 12.5701H208.998V22.2624H215.16C215.39 22.2624 215.598 22.2009 215.783 22.0778C215.967 21.9394 216.121 21.7701 216.244 21.5701C216.367 21.3547 216.46 21.1317 216.521 20.9009C216.583 20.6547 216.614 20.4163 216.614 20.1855C216.614 19.924 216.521 19.6471 216.337 19.3547C216.167 19.0624 215.952 18.8086 215.69 18.5932H212.714V16.2163Z" fill="#FF0000"/>
  </svg>