<svg width="681" height="879" viewBox="0 0 681 879" fill="none" xmlns="http://www.w3.org/2000/svg">
<path fill-rule="evenodd" clip-rule="evenodd" d="M145.199 116.338L145.364 115.704C166.361 37.3082 302.568 5.67447 449.577 45.0514C596.559 84.4558 698.68 179.936 677.71 258.331L535.055 790.622C514.057 869.018 377.85 900.651 230.841 861.274C83.8599 821.87 -18.261 726.39 2.73637 647.994L3.01193 646.947L145.199 116.282V116.338Z" fill="#D2EEF8"/>
<path d="M392.507 258.002C500.302 286.885 599.396 266.602 613.84 212.697C628.283 158.792 552.607 91.6791 444.813 62.7956C337.018 33.912 237.924 54.1957 223.48 108.1C209.036 162.005 284.712 229.118 392.507 258.002Z" fill="#207295"/>
<path fill-rule="evenodd" clip-rule="evenodd" d="M582.009 118.597L581.844 119.258L567.763 171.807C557.264 211.018 485.179 225.761 406.784 204.736C328.388 183.738 273.332 134.937 283.858 95.7259L298.104 42.5161C308.631 3.30459 380.688 -11.4376 459.084 9.5597C537.48 30.5846 592.536 79.3855 582.037 118.597H582.009Z" fill="#3FD9DD"/>
<path d="M521.139 558.714L468.839 753.918M563.906 399.002L549.659 452.267" stroke="#F6FDFF" stroke-width="2" stroke-linecap="round"/>
<path d="M173.03 564.914L199.428 572.079C214.639 576.212 221.858 594.399 214.198 609.417L169.392 697.209C156.386 722.725 185.154 747.58 206.372 729.173L399.84 561.194C421.002 542.815 414.499 507.461 388.68 500.462L355.833 491.534C341.091 487.538 333.789 470.261 340.512 455.381L382.121 363.401C393.888 337.416 364.265 314.131 343.819 333.31L160.85 505.091C140.845 523.884 147.816 558.026 173.057 564.887L173.03 564.914Z" fill="#2ECED2"/>
</svg>
