<svg xmlns="http://www.w3.org/2000/svg" width="43" height="39" viewBox="0 0 43 39" fill="none">
  <path fill-rule="evenodd" clip-rule="evenodd" d="M21.0159 0.803469L21.0171 0.803467C29.6906 0.803468 34.976 5.26498 37.4538 8.18118L37.4542 8.18167C39.738 10.8759 41.0628 14.916 41.8467 18.5491C42.6343 22.1993 42.8938 25.5285 42.9961 26.8638C43.0503 27.5156 42.5306 28.0653 41.8872 28.0653H37.24C37.2397 28.0655 37.2393 28.0659 37.2389 28.0663C37.2367 28.0685 37.2352 28.071 37.2343 28.073C37.2339 28.0741 37.2337 28.0748 37.2336 28.0753C37.2336 28.0756 37.2336 28.0757 37.2336 28.0759L37.2799 36.6003V36.6018C37.2799 37.4799 36.5618 38.1852 35.678 38.1852H29.5986V37.0758H35.678C35.9616 37.0758 36.1699 36.855 36.1706 36.603C36.1706 36.6026 36.1706 36.6022 36.1706 36.6018L36.1242 28.0774V28.0759C36.1242 27.4757 36.611 26.9559 37.235 26.9559H41.8872C41.8876 26.9559 41.8879 26.9559 41.8881 26.9558C41.8882 26.9558 41.8885 26.9556 41.8889 26.9553C41.8893 26.9551 41.8896 26.9548 41.8899 26.9545C41.8901 26.9543 41.8902 26.9542 41.8903 26.9541C41.8904 26.954 41.8904 26.954 41.8904 26.954L41.8903 26.9531L41.8902 26.9506C41.7885 25.6248 41.5335 22.3572 40.7623 18.7831C39.987 15.1901 38.7078 11.3765 36.6084 8.89949C34.2672 6.14415 29.266 1.91304 21.0177 1.91283C16.8782 1.92199 11.8836 3.36862 7.93728 6.6104C4.00852 9.83779 1.09595 14.8612 1.10941 22.097C1.11842 24.6762 1.83328 27.2757 2.92214 29.6714C3.64313 31.2484 4.6715 32.7899 6.11191 33.7274L5.50674 34.6572C3.81492 33.556 2.67478 31.7985 1.913 30.1322L1.91251 30.1311C0.77743 27.6339 0.00966028 24.8773 5.16036e-05 22.1004L4.92615e-05 22.0995C-0.0141683 14.5263 3.05068 9.18895 7.23309 5.75319C11.3979 2.33192 16.6481 0.812985 21.0159 0.803469Z" fill="white"/>
  <path d="M20.9607 22.6641C21.9025 22.6641 22.6659 21.9214 22.6659 21.0053C22.6659 20.0891 21.9025 19.3464 20.9607 19.3464C20.019 19.3464 19.2556 20.0891 19.2556 21.0053C19.2556 21.9214 20.019 22.6641 20.9607 22.6641Z" fill="#FF0C00"/>
  <path fill-rule="evenodd" clip-rule="evenodd" d="M20.9607 16.0542C18.1202 16.0542 15.8437 18.2945 15.8437 21.0136C15.8437 23.7327 18.1202 25.973 20.9607 25.973C21.267 25.973 21.5154 26.2213 21.5154 26.5276C21.5154 26.834 21.267 27.0823 20.9607 27.0823C17.5364 27.0823 14.7344 24.3739 14.7344 21.0136C14.7344 17.6533 17.5364 14.9448 20.9607 14.9448C24.3849 14.9448 27.187 17.6533 27.187 21.0136C27.187 22.6823 26.4902 24.1929 25.3824 25.2906C25.1648 25.5062 24.8136 25.5046 24.5979 25.287C24.3823 25.0694 24.3839 24.7182 24.6016 24.5026C25.514 23.5985 26.0776 22.366 26.0776 21.0136C26.0776 18.2945 23.8012 16.0542 20.9607 16.0542Z" fill="white"/>
  <path fill-rule="evenodd" clip-rule="evenodd" d="M20.9612 12.3387C16.164 12.3387 12.2945 16.115 12.2945 20.7552C12.2945 22.6057 12.9081 24.3138 13.95 25.7031L13.4041 26.1125C12.2775 24.6104 11.6122 22.7598 11.6122 20.7552C11.6122 15.7202 15.8053 11.6564 20.9612 11.6564C24.8036 11.6564 28.1137 13.9143 29.549 17.1605L28.9249 17.4364C27.5985 14.4365 24.5326 12.3387 20.9612 12.3387Z" fill="white"/>
  <path fill-rule="evenodd" clip-rule="evenodd" d="M20.9696 8.80894C14.0223 8.80894 8.41063 14.2812 8.41063 21.0065C8.41063 23.7546 9.33827 26.2858 10.9155 28.3227L10.376 28.7404C8.7097 26.5885 7.72827 23.9115 7.72827 21.0065C7.72827 13.8863 13.6637 8.12659 20.9696 8.12659C28.0763 8.12659 33.8966 13.5821 34.1921 20.4543L33.5103 20.4836C33.2312 13.9923 27.7268 8.80894 20.9696 8.80894Z" fill="white"/>
  <path fill-rule="evenodd" clip-rule="evenodd" d="M24.799 32.9199C29.0331 31.6199 32.1985 28.2533 33.2619 24.198L33.9219 24.3711C32.7982 28.6563 29.458 32.2032 24.9993 33.5722L24.799 32.9199Z" fill="white"/>
  <path fill-rule="evenodd" clip-rule="evenodd" d="M23.4589 29.5378C26.0592 29.0053 28.1414 27.1776 29.0085 24.8239L29.6488 25.0597C28.6996 27.6363 26.4261 29.6267 23.5958 30.2063L23.4589 29.5378Z" fill="white"/>
  <path fill-rule="evenodd" clip-rule="evenodd" d="M20.9616 5.32994C12.0496 5.32994 4.83464 12.359 4.83464 21.0027C4.83464 22.4444 5.03408 23.8313 5.40577 25.1549L4.74883 25.3394C4.36061 23.957 4.15228 22.508 4.15228 21.0027C4.15228 11.9643 11.6909 4.64758 20.9616 4.64758C27.3042 4.64758 32.8292 8.06042 35.6878 13.1151L35.0939 13.451C32.355 8.60812 27.0557 5.32994 20.9616 5.32994Z" fill="white"/>
  <path d="M35.391 14.593C36.0564 14.593 36.5958 14.0661 36.5958 13.4161C36.5958 12.7661 36.0564 12.2391 35.391 12.2391C34.7257 12.2391 34.1863 12.7661 34.1863 13.4161C34.1863 14.0661 34.7257 14.593 35.391 14.593Z" fill="white"/>
  <path d="M33.8616 20.939C34.5269 20.939 35.0663 20.412 35.0663 19.762C35.0663 19.112 34.5269 18.5851 33.8616 18.5851C33.1962 18.5851 32.6568 19.112 32.6568 19.762C32.6568 20.412 33.1962 20.939 33.8616 20.939Z" fill="white"/>
  <path d="M29.2381 18.5963C29.9034 18.5963 30.4428 18.0694 30.4428 17.4194C30.4428 16.7694 29.9034 16.2424 29.2381 16.2424C28.5727 16.2424 28.0333 16.7694 28.0333 17.4194C28.0333 18.0694 28.5727 18.5963 29.2381 18.5963Z" fill="white"/>
  <path d="M33.8437 24.9866C34.4209 24.9016 34.8218 24.3771 34.739 23.815C34.6562 23.253 34.1212 22.8663 33.544 22.9513C32.9667 23.0363 32.5659 23.5609 32.6487 24.1229C32.7314 24.6849 33.2665 25.0716 33.8437 24.9866Z" fill="white"/>
  <path d="M29.3696 25.7479C29.8296 25.7247 30.1844 25.3454 30.162 24.9007C30.1396 24.456 29.7485 24.1143 29.2884 24.1375C28.8284 24.1607 28.4736 24.5399 28.496 24.9847C28.5184 25.4294 28.9095 25.7711 29.3696 25.7479Z" fill="white"/>
  <path d="M23.5668 30.6784C24.0268 30.6553 24.3816 30.276 24.3592 29.8312C24.3368 29.3865 23.9457 29.0448 23.4856 29.068C23.0256 29.0912 22.6708 29.4705 22.6932 29.9152C22.7156 30.3599 23.1067 30.7016 23.5668 30.6784Z" fill="white"/>
  <path d="M24.8399 34.4291C25.407 34.3456 25.8008 33.8305 25.7195 33.2785C25.6382 32.7266 25.1126 32.3469 24.5455 32.4304C23.9784 32.514 23.5846 33.0291 23.6659 33.581C23.7471 34.1329 24.2728 34.5126 24.8399 34.4291Z" fill="white"/>
  <path d="M5.1784 26.6658C5.90007 26.6658 6.4851 26.0974 6.4851 25.3962C6.4851 24.695 5.90007 24.1266 5.1784 24.1266C4.45673 24.1266 3.8717 24.695 3.8717 25.3962C3.8717 26.0974 4.45673 26.6658 5.1784 26.6658Z" fill="white"/>
  <path d="M5.17947 35.3605C6.10075 35.3605 6.84759 34.6344 6.84759 33.7387C6.84759 32.843 6.10075 32.1169 5.17947 32.1169C4.2582 32.1169 3.51135 32.843 3.51135 33.7387C3.51135 34.6344 4.2582 35.3605 5.17947 35.3605Z" fill="white"/>
  <path d="M10.6472 29.9471C11.3688 29.9471 11.9538 29.3787 11.9538 28.6775C11.9538 27.9763 11.3688 27.4078 10.6472 27.4078C9.92548 27.4078 9.34045 27.9763 9.34045 28.6775C9.34045 29.3787 9.92548 29.9471 10.6472 29.9471Z" fill="white"/>
  <path d="M13.6222 26.898C14.3439 26.898 14.9289 26.3296 14.9289 25.6284C14.9289 24.9272 14.3439 24.3588 13.6222 24.3588C12.9006 24.3588 12.3156 24.9272 12.3156 25.6284C12.3156 26.3296 12.9006 26.898 13.6222 26.898Z" fill="white"/>
  <path d="M20.2208 27.7148C20.9424 27.7148 21.5275 27.1464 21.5275 26.4452C21.5275 25.744 20.9424 25.1755 20.2208 25.1755C19.4991 25.1755 18.9141 25.744 18.9141 26.4452C18.9141 27.1464 19.4991 27.7148 20.2208 27.7148Z" fill="white"/>
  <path fill-rule="evenodd" clip-rule="evenodd" d="M19.5463 26.878C19.5464 26.8778 19.5464 26.8776 20.1001 26.9103C20.6538 26.9429 20.6538 26.9429 20.6538 26.9428L20.6538 26.9435L20.6536 26.9469C20.6534 26.9502 20.6531 26.9553 20.6528 26.9623C20.652 26.9763 20.651 26.9976 20.6497 27.0258C20.6471 27.0823 20.6437 27.1663 20.6405 27.2746C20.6341 27.4912 20.6283 27.804 20.6313 28.1854C20.6373 28.9496 20.6783 29.9821 20.8171 31.0632C20.9564 32.1485 21.1914 33.2589 21.5748 34.19C21.9613 35.1287 22.47 35.8169 23.1139 36.1611L23.124 36.1665L23.1339 36.1723C24.0125 36.6896 25.2348 36.9213 26.478 37.017C27.3345 37.0829 28.1362 37.0822 28.8099 37.0816C29.1194 37.0814 29.4018 37.0811 29.6501 37.0874L29.6222 38.1964C29.4193 38.1913 29.1653 38.1914 28.875 38.1915C28.1857 38.1919 27.292 38.1923 26.3929 38.1231C25.1122 38.0245 23.684 37.78 22.5808 37.134C21.6179 36.615 20.9794 35.6578 20.5489 34.6124C20.1139 33.5556 19.8624 32.3388 19.7167 31.2045C19.5706 30.0661 19.5282 28.9868 19.522 28.1941C19.5189 27.797 19.5248 27.4701 19.5316 27.2416C19.535 27.1273 19.5387 27.0375 19.5414 26.9757C19.5428 26.9448 19.544 26.9209 19.5449 26.9044C19.5453 26.8961 19.5457 26.8897 19.5459 26.8853L19.5462 26.88L19.5463 26.878Z" fill="white"/>
</svg>