<svg xmlns="http://www.w3.org/2000/svg" width="50" height="50" viewBox="0 0 50 50" fill="none">
  <path fill-rule="evenodd" clip-rule="evenodd" d="M25.0835 9L25.0845 9C32.5477 9 37.0956 12.839 39.2277 15.3483C41.1928 17.6666 42.3331 21.1433 43.0076 24.2695C43.6853 27.4104 43.9086 30.275 43.9967 31.424C44.0433 31.9849 43.5961 32.4579 43.0425 32.4579H39.0437C39.0435 32.458 39.0431 32.4584 39.0428 32.4587C39.0409 32.4606 39.0396 32.4628 39.0388 32.4645C39.0385 32.4654 39.0383 32.466 39.0382 32.4665C39.0382 32.4663 39.0382 32.4667 39.0382 32.4665L39.0781 39.8019V39.8032C39.0781 40.5588 38.4602 41.1657 37.6997 41.1657H32.4686V40.2111H37.6997C37.9437 40.2111 38.1229 40.0211 38.1235 39.8043C38.1235 39.8039 38.1235 39.8036 38.1235 39.8032L38.0836 32.4683V32.467C38.0836 31.9505 38.5025 31.5033 39.0394 31.5033H43.0425C43.0423 31.5033 43.0428 31.5033 43.0425 31.5033C43.0426 31.5033 43.0436 31.503 43.0439 31.5027C43.0443 31.5026 43.0445 31.5023 43.0448 31.5021C43.0447 31.5021 43.045 31.5019 43.0448 31.5021L43.0452 31.5008L43.0451 31.4987C42.9576 30.3579 42.7381 27.5462 42.0745 24.4708C41.4074 21.3792 40.3067 18.0977 38.5003 15.9663C36.4857 13.5955 32.1824 9.95475 25.085 9.95457C21.5231 9.96245 17.2254 11.2072 13.8298 13.9967C10.4492 16.7737 7.94303 21.0962 7.95461 27.3223C7.96236 29.5417 8.57747 31.7784 9.5144 33.8399C10.1348 35.1968 11.0197 36.5232 12.2591 37.3299L11.7384 38.13C10.2826 37.1824 9.30156 35.6701 8.64607 34.2364L8.64565 34.2354C7.66895 32.0867 7.00831 29.7147 7.00004 27.3253C6.98781 20.8088 9.625 16.2154 13.2238 13.2591C16.8075 10.3152 21.3251 9.00819 25.0835 9Z" fill="white"/>
  <path d="M25.0346 27.8079C25.8449 27.8079 26.5018 27.1688 26.5018 26.3806C26.5018 25.5922 25.8449 24.9531 25.0346 24.9531C24.2243 24.9531 23.5674 25.5922 23.5674 26.3806C23.5674 27.1688 24.2243 27.8079 25.0346 27.8079Z" fill="#FF0C00"/>
  <path fill-rule="evenodd" clip-rule="evenodd" d="M25.0352 22.1265C22.5911 22.1265 20.6322 24.0542 20.6322 26.3939C20.6322 28.7336 22.5911 30.6613 25.0352 30.6613C25.2988 30.6613 25.5126 30.8749 25.5126 31.1385C25.5126 31.4021 25.2988 31.6158 25.0352 31.6158C22.0888 31.6158 19.6777 29.2853 19.6777 26.3939C19.6777 23.5024 22.0888 21.1719 25.0352 21.1719C27.9817 21.1719 30.3928 23.5024 30.3928 26.3939C30.3928 27.8297 29.7932 29.1295 28.84 30.0741C28.6527 30.2596 28.3505 30.2582 28.1649 30.071C27.9794 29.8837 27.9808 29.5815 28.1681 29.396C28.9532 28.6181 29.4382 27.5576 29.4382 26.3939C29.4382 24.0542 27.4794 22.1265 25.0352 22.1265Z" fill="white"/>
  <path fill-rule="evenodd" clip-rule="evenodd" d="M25.0347 18.9289C20.9069 18.9289 17.5773 22.1783 17.5773 26.171C17.5773 27.7633 18.1053 29.233 19.0018 30.4285L18.5321 30.7808C17.5627 29.4883 16.9902 27.8959 16.9902 26.171C16.9902 21.8386 20.5983 18.3418 25.0347 18.3418C28.341 18.3418 31.1892 20.2846 32.4242 23.0779L31.8872 23.3153C30.7459 20.734 28.1078 18.9289 25.0347 18.9289Z" fill="white"/>
  <path fill-rule="evenodd" clip-rule="evenodd" d="M25.0441 15.8918C19.0662 15.8918 14.2375 20.6005 14.2375 26.3874C14.2375 28.752 15.0357 30.9301 16.3929 32.6827L15.9287 33.0422C14.4949 31.1905 13.6504 28.8871 13.6504 26.3874C13.6504 20.2607 18.7576 15.3047 25.0441 15.3047C31.1592 15.3047 36.1673 19.999 36.4216 25.9123L35.8349 25.9375C35.5948 20.3519 30.8584 15.8918 25.0441 15.8918Z" fill="white"/>
  <path fill-rule="evenodd" clip-rule="evenodd" d="M28.3369 36.6318C31.9802 35.5132 34.7039 32.6164 35.6189 29.127L36.1869 29.2759C35.22 32.9632 32.3458 36.0151 28.5093 37.1931L28.3369 36.6318Z" fill="white"/>
  <path fill-rule="evenodd" clip-rule="evenodd" d="M27.1836 33.7261C29.4211 33.2679 31.2127 31.6952 31.9588 29.6699L32.5098 29.8728C31.693 32.0899 29.7368 33.8026 27.3014 34.3013L27.1836 33.7261Z" fill="white"/>
  <path fill-rule="evenodd" clip-rule="evenodd" d="M25.0361 12.8938C17.3676 12.8938 11.1594 18.9421 11.1594 26.3797C11.1594 27.6202 11.331 28.8136 11.6509 29.9525L11.0856 30.1112C10.7515 28.9217 10.5723 27.6749 10.5723 26.3797C10.5723 18.6024 17.059 12.3066 25.0361 12.3066C30.4937 12.3066 35.2478 15.2433 37.7075 19.5926L37.1965 19.8817C34.8397 15.7145 30.2799 12.8938 25.0361 12.8938Z" fill="white"/>
  <path d="M37.4536 20.8672C38.0261 20.8672 38.4903 20.4139 38.4903 19.8546C38.4903 19.2953 38.0261 18.8418 37.4536 18.8418C36.8811 18.8418 36.417 19.2953 36.417 19.8546C36.417 20.4139 36.8811 20.8672 37.4536 20.8672Z" fill="white"/>
  <path d="M36.1363 26.3243C36.7088 26.3243 37.1729 25.8708 37.1729 25.3115C37.1729 24.7522 36.7088 24.2988 36.1363 24.2988C35.5637 24.2988 35.0996 24.7522 35.0996 25.3115C35.0996 25.8708 35.5637 26.3243 36.1363 26.3243Z" fill="white"/>
  <path d="M32.1558 24.3087C32.7283 24.3087 33.1924 23.8553 33.1924 23.296C33.1924 22.7367 32.7283 22.2832 32.1558 22.2832C31.5833 22.2832 31.1191 22.7367 31.1191 23.296C31.1191 23.8553 31.5833 24.3087 32.1558 24.3087Z" fill="white"/>
  <path d="M36.1216 29.8063C36.6182 29.7332 36.9632 29.2819 36.8919 28.7982C36.8207 28.3146 36.3603 27.9819 35.8637 28.055C35.3669 28.1281 35.0221 28.5795 35.0933 29.0631C35.1645 29.5467 35.6249 29.8794 36.1216 29.8063Z" fill="white"/>
  <path d="M32.2701 30.4628C32.666 30.4429 32.9713 30.1165 32.952 29.7338C32.9327 29.3512 32.5962 29.0572 32.2003 29.0771C31.8045 29.0971 31.4992 29.4234 31.5184 29.8061C31.5377 30.1888 31.8742 30.4828 32.2701 30.4628Z" fill="white"/>
  <path d="M27.2799 34.7031C27.6757 34.6832 27.981 34.3568 27.9617 33.9741C27.9425 33.5914 27.6059 33.2974 27.21 33.3174C26.8142 33.3373 26.5089 33.6637 26.5282 34.0464C26.5475 34.429 26.884 34.723 27.2799 34.7031Z" fill="white"/>
  <path d="M28.3748 37.9367C28.8628 37.8649 29.2016 37.4217 29.1317 36.9467C29.0617 36.4718 28.6095 36.1451 28.1215 36.2169C27.6335 36.2889 27.2947 36.7321 27.3646 37.207C27.4345 37.6819 27.8868 38.0086 28.3748 37.9367Z" fill="white"/>
  <path d="M11.4574 31.2533C12.0784 31.2533 12.5817 30.7642 12.5817 30.1608C12.5817 29.5574 12.0784 29.0684 11.4574 29.0684C10.8364 29.0684 10.333 29.5574 10.333 30.1608C10.333 30.7642 10.8364 31.2533 11.4574 31.2533Z" fill="white"/>
  <path d="M11.4549 38.7344C12.2476 38.7344 12.8903 38.1096 12.8903 37.3389C12.8903 36.5681 12.2476 35.9434 11.4549 35.9434C10.6622 35.9434 10.0195 36.5681 10.0195 37.3389C10.0195 38.1096 10.6622 38.7344 11.4549 38.7344Z" fill="white"/>
  <path d="M16.1635 34.0756C16.7844 34.0756 17.2878 33.5865 17.2878 32.9832C17.2878 32.3798 16.7844 31.8906 16.1635 31.8906C15.5425 31.8906 15.0391 32.3798 15.0391 32.9832C15.0391 33.5865 15.5425 34.0756 16.1635 34.0756Z" fill="white"/>
  <path d="M18.7229 31.4564C19.3439 31.4564 19.8473 30.9673 19.8473 30.3639C19.8473 29.7606 19.3439 29.2715 18.7229 29.2715C18.102 29.2715 17.5986 29.7606 17.5986 30.3639C17.5986 30.9673 18.102 31.4564 18.7229 31.4564Z" fill="white"/>
  <path d="M24.4007 32.1596C25.0216 32.1596 25.5251 31.6705 25.5251 31.0671C25.5251 30.4638 25.0216 29.9746 24.4007 29.9746C23.7797 29.9746 23.2764 30.4638 23.2764 31.0671C23.2764 31.6705 23.7797 32.1596 24.4007 32.1596Z" fill="white"/>
  <path fill-rule="evenodd" clip-rule="evenodd" d="M23.8195 31.4395C23.8196 31.4393 23.8196 31.4391 24.296 31.4673C24.7725 31.4953 24.7725 31.4953 24.7725 31.4952L24.7723 31.4988C24.7721 31.5016 24.7719 31.506 24.7716 31.512C24.7709 31.5241 24.77 31.5424 24.7689 31.5667C24.7667 31.6153 24.7638 31.6876 24.761 31.7807C24.7555 31.9671 24.7505 32.2363 24.7531 32.5645C24.7583 33.222 24.7935 34.1104 24.913 35.0407C25.0328 35.9746 25.235 36.93 25.5649 37.7312C25.8975 38.5389 26.3352 39.1311 26.8893 39.4273L26.898 39.4319L26.9065 39.4369C27.6625 39.882 28.7142 40.0814 29.784 40.1637C30.521 40.2204 31.2108 40.2198 31.7905 40.2193C32.0568 40.2192 32.2998 40.2189 32.5135 40.2243L32.4895 41.1786C32.3149 41.1742 32.0963 41.1743 31.8465 41.1744C31.2534 41.1747 30.4844 41.175 29.7108 41.1155C28.6088 41.0307 27.3798 40.8203 26.4306 40.2644C25.602 39.8178 25.0526 38.9942 24.6822 38.0947C24.3079 37.1853 24.0915 36.1383 23.9661 35.1623C23.8404 34.1827 23.8039 33.254 23.7986 32.5719C23.7959 32.2302 23.801 31.949 23.8068 31.7523C23.8098 31.654 23.813 31.5767 23.8153 31.5235C23.8165 31.497 23.8175 31.4764 23.8183 31.4622C23.8186 31.4551 23.819 31.4495 23.8191 31.4458L23.8194 31.4412L23.8195 31.4395Z" fill="white"/>
</svg>