<svg width="291" height="39" viewBox="0 0 291 39" fill="none" xmlns="http://www.w3.org/2000/svg">
<path fill-rule="evenodd" clip-rule="evenodd" d="M21.0159 0.803469L21.0171 0.803467C29.6906 0.803468 34.976 5.26498 37.4538 8.18118L37.4542 8.18167C39.738 10.8759 41.0628 14.916 41.8467 18.5491C42.6343 22.1993 42.8938 25.5285 42.9961 26.8638C43.0503 27.5156 42.5306 28.0653 41.8872 28.0653H37.24C37.2397 28.0655 37.2393 28.0659 37.2389 28.0663C37.2367 28.0685 37.2352 28.071 37.2343 28.073C37.2339 28.0741 37.2337 28.0748 37.2336 28.0753C37.2336 28.0756 37.2336 28.0757 37.2336 28.0759L37.2799 36.6003V36.6018C37.2799 37.4799 36.5618 38.1852 35.678 38.1852H29.5986V37.0758H35.678C35.9616 37.0758 36.1699 36.855 36.1706 36.603C36.1706 36.6026 36.1706 36.6022 36.1706 36.6018L36.1242 28.0774V28.0759C36.1242 27.4757 36.611 26.9559 37.235 26.9559H41.8872C41.8876 26.9559 41.8879 26.9559 41.8881 26.9558C41.8882 26.9558 41.8885 26.9556 41.8889 26.9553C41.8893 26.9551 41.8896 26.9548 41.8899 26.9545C41.8901 26.9543 41.8902 26.9542 41.8903 26.9541C41.8904 26.954 41.8904 26.954 41.8904 26.954L41.8903 26.9531L41.8902 26.9506C41.7885 25.6248 41.5335 22.3572 40.7623 18.7831C39.987 15.1901 38.7078 11.3765 36.6084 8.89949C34.2672 6.14415 29.266 1.91304 21.0177 1.91283C16.8782 1.92199 11.8836 3.36862 7.93728 6.6104C4.00852 9.83779 1.09595 14.8612 1.10941 22.097C1.11842 24.6762 1.83328 27.2757 2.92214 29.6714C3.64313 31.2484 4.6715 32.7899 6.11191 33.7274L5.50674 34.6572C3.81492 33.556 2.67478 31.7985 1.913 30.1322L1.91251 30.1311C0.77743 27.6339 0.00966028 24.8773 5.16036e-05 22.1004L4.92615e-05 22.0995C-0.0141683 14.5263 3.05068 9.18895 7.23309 5.75319C11.3979 2.33192 16.6481 0.812985 21.0159 0.803469Z" fill="white"/>
<path d="M20.9607 22.6641C21.9025 22.6641 22.6659 21.9214 22.6659 21.0053C22.6659 20.0891 21.9025 19.3464 20.9607 19.3464C20.019 19.3464 19.2556 20.0891 19.2556 21.0053C19.2556 21.9214 20.019 22.6641 20.9607 22.6641Z" fill="#FF0C00"/>
<path fill-rule="evenodd" clip-rule="evenodd" d="M20.9607 16.0542C18.1202 16.0542 15.8437 18.2945 15.8437 21.0136C15.8437 23.7327 18.1202 25.973 20.9607 25.973C21.267 25.973 21.5154 26.2213 21.5154 26.5276C21.5154 26.834 21.267 27.0823 20.9607 27.0823C17.5364 27.0823 14.7344 24.3739 14.7344 21.0136C14.7344 17.6533 17.5364 14.9448 20.9607 14.9448C24.3849 14.9448 27.187 17.6533 27.187 21.0136C27.187 22.6823 26.4902 24.1929 25.3824 25.2906C25.1648 25.5062 24.8136 25.5046 24.5979 25.287C24.3823 25.0694 24.3839 24.7182 24.6016 24.5026C25.514 23.5985 26.0776 22.366 26.0776 21.0136C26.0776 18.2945 23.8012 16.0542 20.9607 16.0542Z" fill="white"/>
<path fill-rule="evenodd" clip-rule="evenodd" d="M20.9612 12.3387C16.164 12.3387 12.2945 16.115 12.2945 20.7552C12.2945 22.6057 12.9081 24.3138 13.95 25.7031L13.4041 26.1125C12.2775 24.6104 11.6122 22.7598 11.6122 20.7552C11.6122 15.7202 15.8053 11.6564 20.9612 11.6564C24.8036 11.6564 28.1137 13.9143 29.549 17.1605L28.9249 17.4364C27.5985 14.4365 24.5326 12.3387 20.9612 12.3387Z" fill="white"/>
<path fill-rule="evenodd" clip-rule="evenodd" d="M20.9696 8.80894C14.0223 8.80894 8.41063 14.2812 8.41063 21.0065C8.41063 23.7546 9.33827 26.2858 10.9155 28.3227L10.376 28.7404C8.7097 26.5885 7.72827 23.9115 7.72827 21.0065C7.72827 13.8863 13.6637 8.12659 20.9696 8.12659C28.0763 8.12659 33.8966 13.5821 34.1921 20.4543L33.5103 20.4836C33.2312 13.9923 27.7268 8.80894 20.9696 8.80894Z" fill="white"/>
<path fill-rule="evenodd" clip-rule="evenodd" d="M24.799 32.9199C29.0331 31.6199 32.1985 28.2533 33.2619 24.198L33.9219 24.3711C32.7982 28.6563 29.458 32.2032 24.9993 33.5722L24.799 32.9199Z" fill="white"/>
<path fill-rule="evenodd" clip-rule="evenodd" d="M23.4589 29.5378C26.0592 29.0053 28.1414 27.1776 29.0085 24.8239L29.6488 25.0597C28.6996 27.6363 26.4261 29.6267 23.5958 30.2063L23.4589 29.5378Z" fill="white"/>
<path fill-rule="evenodd" clip-rule="evenodd" d="M20.9616 5.32994C12.0496 5.32994 4.83464 12.359 4.83464 21.0027C4.83464 22.4444 5.03408 23.8313 5.40577 25.1549L4.74883 25.3394C4.36061 23.957 4.15228 22.508 4.15228 21.0027C4.15228 11.9643 11.6909 4.64758 20.9616 4.64758C27.3042 4.64758 32.8292 8.06042 35.6878 13.1151L35.0939 13.451C32.355 8.60812 27.0557 5.32994 20.9616 5.32994Z" fill="white"/>
<path d="M35.391 14.593C36.0564 14.593 36.5958 14.0661 36.5958 13.4161C36.5958 12.7661 36.0564 12.2391 35.391 12.2391C34.7257 12.2391 34.1863 12.7661 34.1863 13.4161C34.1863 14.0661 34.7257 14.593 35.391 14.593Z" fill="white"/>
<path d="M33.8616 20.939C34.5269 20.939 35.0663 20.412 35.0663 19.762C35.0663 19.112 34.5269 18.5851 33.8616 18.5851C33.1962 18.5851 32.6568 19.112 32.6568 19.762C32.6568 20.412 33.1962 20.939 33.8616 20.939Z" fill="white"/>
<path d="M29.2381 18.5963C29.9034 18.5963 30.4428 18.0694 30.4428 17.4194C30.4428 16.7694 29.9034 16.2424 29.2381 16.2424C28.5727 16.2424 28.0333 16.7694 28.0333 17.4194C28.0333 18.0694 28.5727 18.5963 29.2381 18.5963Z" fill="white"/>
<path d="M33.8437 24.9866C34.4209 24.9016 34.8218 24.3771 34.739 23.815C34.6562 23.253 34.1212 22.8663 33.544 22.9513C32.9667 23.0363 32.5659 23.5609 32.6487 24.1229C32.7314 24.6849 33.2665 25.0716 33.8437 24.9866Z" fill="white"/>
<path d="M29.3696 25.7479C29.8296 25.7247 30.1844 25.3454 30.162 24.9007C30.1396 24.456 29.7485 24.1143 29.2884 24.1375C28.8284 24.1607 28.4736 24.5399 28.496 24.9847C28.5184 25.4294 28.9095 25.7711 29.3696 25.7479Z" fill="white"/>
<path d="M23.5668 30.6784C24.0268 30.6553 24.3816 30.276 24.3592 29.8312C24.3368 29.3865 23.9457 29.0448 23.4856 29.068C23.0256 29.0912 22.6708 29.4705 22.6932 29.9152C22.7156 30.3599 23.1067 30.7016 23.5668 30.6784Z" fill="white"/>
<path d="M24.8399 34.4291C25.407 34.3456 25.8008 33.8305 25.7195 33.2785C25.6382 32.7266 25.1126 32.3469 24.5455 32.4304C23.9784 32.514 23.5846 33.0291 23.6659 33.581C23.7471 34.1329 24.2728 34.5126 24.8399 34.4291Z" fill="white"/>
<path d="M5.1784 26.6658C5.90007 26.6658 6.4851 26.0974 6.4851 25.3962C6.4851 24.695 5.90007 24.1266 5.1784 24.1266C4.45673 24.1266 3.8717 24.695 3.8717 25.3962C3.8717 26.0974 4.45673 26.6658 5.1784 26.6658Z" fill="white"/>
<path d="M5.17947 35.3605C6.10075 35.3605 6.84759 34.6344 6.84759 33.7387C6.84759 32.843 6.10075 32.1169 5.17947 32.1169C4.2582 32.1169 3.51135 32.843 3.51135 33.7387C3.51135 34.6344 4.2582 35.3605 5.17947 35.3605Z" fill="white"/>
<path d="M10.6472 29.9471C11.3688 29.9471 11.9538 29.3787 11.9538 28.6775C11.9538 27.9763 11.3688 27.4078 10.6472 27.4078C9.92548 27.4078 9.34045 27.9763 9.34045 28.6775C9.34045 29.3787 9.92548 29.9471 10.6472 29.9471Z" fill="white"/>
<path d="M13.6222 26.898C14.3439 26.898 14.9289 26.3296 14.9289 25.6284C14.9289 24.9272 14.3439 24.3588 13.6222 24.3588C12.9006 24.3588 12.3156 24.9272 12.3156 25.6284C12.3156 26.3296 12.9006 26.898 13.6222 26.898Z" fill="white"/>
<path d="M20.2208 27.7148C20.9424 27.7148 21.5275 27.1464 21.5275 26.4452C21.5275 25.744 20.9424 25.1755 20.2208 25.1755C19.4991 25.1755 18.9141 25.744 18.9141 26.4452C18.9141 27.1464 19.4991 27.7148 20.2208 27.7148Z" fill="white"/>
<path fill-rule="evenodd" clip-rule="evenodd" d="M19.5463 26.878C19.5464 26.8778 19.5464 26.8776 20.1001 26.9103C20.6538 26.9429 20.6538 26.9429 20.6538 26.9428L20.6538 26.9435L20.6536 26.9469C20.6534 26.9502 20.6531 26.9553 20.6528 26.9623C20.652 26.9763 20.651 26.9976 20.6497 27.0258C20.6471 27.0823 20.6437 27.1663 20.6405 27.2746C20.6341 27.4912 20.6283 27.804 20.6313 28.1854C20.6373 28.9496 20.6783 29.9821 20.8171 31.0632C20.9564 32.1485 21.1914 33.2589 21.5748 34.19C21.9613 35.1287 22.47 35.8169 23.1139 36.1611L23.124 36.1665L23.1339 36.1723C24.0125 36.6896 25.2348 36.9213 26.478 37.017C27.3345 37.0829 28.1362 37.0822 28.8099 37.0816C29.1194 37.0814 29.4018 37.0811 29.6501 37.0874L29.6222 38.1964C29.4193 38.1913 29.1653 38.1914 28.875 38.1915C28.1857 38.1919 27.292 38.1923 26.3929 38.1231C25.1122 38.0245 23.684 37.78 22.5808 37.134C21.6179 36.615 20.9794 35.6578 20.5489 34.6124C20.1139 33.5556 19.8624 32.3388 19.7167 31.2045C19.5706 30.0661 19.5282 28.9868 19.522 28.1941C19.5189 27.797 19.5248 27.4701 19.5316 27.2416C19.535 27.1273 19.5387 27.0375 19.5414 26.9757C19.5428 26.9448 19.544 26.9209 19.5449 26.9044C19.5453 26.8961 19.5457 26.8897 19.5459 26.8853L19.5462 26.88L19.5463 26.878Z" fill="white"/>
<path d="M71.21 32L65.93 21.59H69.62C69.94 21.59 70.22 21.51 70.46 21.35C70.7 21.19 70.9 20.99 71.06 20.75C71.22 20.49 71.33 20.21 71.39 19.91C71.47 19.61 71.51 19.32 71.51 19.04C71.51 18.74 71.46 18.44 71.36 18.14C71.28 17.82 71.15 17.53 70.97 17.27C70.81 16.99 70.6 16.77 70.34 16.61C70.1 16.43 69.83 16.34 69.53 16.34H61.58V32H58.37V13.28H69.89C70.55 13.28 71.18 13.43 71.78 13.73C72.38 14.01 72.9 14.41 73.34 14.93C73.8 15.45 74.16 16.07 74.42 16.79C74.7 17.49 74.84 18.25 74.84 19.07C74.84 19.71 74.74 20.34 74.54 20.96C74.34 21.56 74.06 22.11 73.7 22.61C73.36 23.09 72.95 23.51 72.47 23.87C71.99 24.21 71.48 24.44 70.94 24.56L74.72 32H71.21ZM77.5803 22.64C77.5803 21.34 77.8203 20.12 78.3003 18.98C78.8003 17.82 79.4703 16.82 80.3103 15.98C81.1703 15.12 82.1803 14.44 83.3403 13.94C84.5003 13.44 85.7503 13.19 87.0903 13.19C88.4103 13.19 89.6503 13.44 90.8103 13.94C91.9703 14.44 92.9703 15.12 93.8103 15.98C94.6703 16.82 95.3503 17.82 95.8503 18.98C96.3503 20.12 96.6003 21.34 96.6003 22.64C96.6003 23.94 96.3503 25.17 95.8503 26.33C95.3503 27.47 94.6703 28.47 93.8103 29.33C92.9703 30.17 91.9703 30.84 90.8103 31.34C89.6503 31.84 88.4103 32.09 87.0903 32.09C85.7503 32.09 84.5003 31.84 83.3403 31.34C82.1803 30.84 81.1703 30.17 80.3103 29.33C79.4703 28.47 78.8003 27.47 78.3003 26.33C77.8203 25.17 77.5803 23.94 77.5803 22.64ZM80.7903 22.67C80.7903 23.51 80.9503 24.31 81.2703 25.07C81.6103 25.83 82.0603 26.5 82.6203 27.08C83.2003 27.64 83.8703 28.09 84.6303 28.43C85.4103 28.75 86.2303 28.91 87.0903 28.91C87.9303 28.91 88.7303 28.75 89.4903 28.43C90.2703 28.09 90.9503 27.64 91.5303 27.08C92.1303 26.5 92.6003 25.83 92.9403 25.07C93.2803 24.31 93.4503 23.51 93.4503 22.67C93.4503 21.83 93.2803 21.03 92.9403 20.27C92.6003 19.51 92.1403 18.84 91.5603 18.26C90.9803 17.68 90.3003 17.22 89.5203 16.88C88.7603 16.54 87.9603 16.37 87.1203 16.37C86.2403 16.37 85.4203 16.54 84.6603 16.88C83.9003 17.22 83.2303 17.68 82.6503 18.26C82.0703 18.84 81.6103 19.51 81.2703 20.27C80.9503 21.03 80.7903 21.83 80.7903 22.67ZM100.001 32V13.28H111.521C112.181 13.28 112.811 13.43 113.411 13.73C114.011 14.01 114.531 14.41 114.971 14.93C115.431 15.45 115.791 16.07 116.051 16.79C116.331 17.49 116.471 18.25 116.471 19.07C116.471 19.87 116.311 20.57 115.991 21.17C115.671 21.77 115.331 22.28 114.971 22.7C115.331 23.14 115.671 23.65 115.991 24.23C116.311 24.81 116.471 25.47 116.471 26.21C116.471 27.03 116.331 27.8 116.051 28.52C115.791 29.22 115.431 29.83 114.971 30.35C114.531 30.87 114.011 31.28 113.411 31.58C112.811 31.86 112.181 32 111.521 32H100.001ZM108.041 21.08H111.941C112.261 20.8 112.531 20.48 112.751 20.12C112.991 19.74 113.111 19.38 113.111 19.04C113.111 18.74 113.061 18.44 112.961 18.14C112.881 17.82 112.751 17.53 112.571 17.27C112.411 16.99 112.211 16.77 111.971 16.61C111.731 16.43 111.461 16.34 111.161 16.34H103.211V28.94H111.221C111.521 28.94 111.791 28.86 112.031 28.7C112.271 28.52 112.471 28.3 112.631 28.04C112.791 27.76 112.911 27.47 112.991 27.17C113.071 26.85 113.111 26.54 113.111 26.24C113.111 25.9 112.991 25.54 112.751 25.16C112.531 24.78 112.251 24.45 111.911 24.17H108.041V21.08ZM119.328 22.64C119.328 21.34 119.568 20.12 120.048 18.98C120.548 17.82 121.218 16.82 122.058 15.98C122.918 15.12 123.928 14.44 125.088 13.94C126.248 13.44 127.498 13.19 128.838 13.19C130.158 13.19 131.398 13.44 132.558 13.94C133.718 14.44 134.718 15.12 135.558 15.98C136.418 16.82 137.098 17.82 137.598 18.98C138.098 20.12 138.348 21.34 138.348 22.64C138.348 23.94 138.098 25.17 137.598 26.33C137.098 27.47 136.418 28.47 135.558 29.33C134.718 30.17 133.718 30.84 132.558 31.34C131.398 31.84 130.158 32.09 128.838 32.09C127.498 32.09 126.248 31.84 125.088 31.34C123.928 30.84 122.918 30.17 122.058 29.33C121.218 28.47 120.548 27.47 120.048 26.33C119.568 25.17 119.328 23.94 119.328 22.64ZM122.538 22.67C122.538 23.51 122.698 24.31 123.018 25.07C123.358 25.83 123.808 26.5 124.368 27.08C124.948 27.64 125.618 28.09 126.378 28.43C127.158 28.75 127.978 28.91 128.838 28.91C129.678 28.91 130.478 28.75 131.238 28.43C132.018 28.09 132.698 27.64 133.278 27.08C133.878 26.5 134.348 25.83 134.688 25.07C135.028 24.31 135.198 23.51 135.198 22.67C135.198 21.83 135.028 21.03 134.688 20.27C134.348 19.51 133.888 18.84 133.308 18.26C132.728 17.68 132.048 17.22 131.268 16.88C130.508 16.54 129.708 16.37 128.868 16.37C127.988 16.37 127.168 16.54 126.408 16.88C125.648 17.22 124.978 17.68 124.398 18.26C123.818 18.84 123.358 19.51 123.018 20.27C122.698 21.03 122.538 21.83 122.538 22.67ZM139.55 13.28H155.9V16.34H149.3V32H146.06V16.34H139.55V13.28ZM159.471 13.28H175.521V16.34H169.071V28.94H175.521V32H159.471V28.94H165.831V16.34H159.471V13.28ZM176.72 22.64C176.72 21.34 176.97 20.12 177.47 18.98C177.97 17.82 178.64 16.82 179.48 15.98C180.34 15.12 181.35 14.44 182.51 13.94C183.67 13.44 184.91 13.19 186.23 13.19C187.19 13.19 188.11 13.34 188.99 13.64C189.87 13.94 190.69 14.36 191.45 14.9C192.23 15.42 192.92 16.05 193.52 16.79C194.14 17.53 194.65 18.35 195.05 19.25L192.44 20.99C192.14 20.33 191.77 19.72 191.33 19.16C190.89 18.6 190.4 18.11 189.86 17.69C189.32 17.27 188.74 16.95 188.12 16.73C187.52 16.49 186.9 16.37 186.26 16.37C185.38 16.37 184.55 16.54 183.77 16.88C183.01 17.22 182.34 17.68 181.76 18.26C181.2 18.84 180.75 19.51 180.41 20.27C180.07 21.03 179.9 21.83 179.9 22.67C179.9 23.51 180.07 24.31 180.41 25.07C180.75 25.83 181.2 26.5 181.76 27.08C182.34 27.64 183.01 28.09 183.77 28.43C184.55 28.75 185.37 28.91 186.23 28.91C186.81 28.91 187.38 28.81 187.94 28.61C188.52 28.41 189.07 28.13 189.59 27.77C190.13 27.41 190.62 26.99 191.06 26.51C191.5 26.01 191.89 25.46 192.23 24.86L194.57 27.2C193.61 28.7 192.42 29.89 191 30.77C189.58 31.65 187.99 32.09 186.23 32.09C184.91 32.09 183.67 31.84 182.51 31.34C181.35 30.84 180.34 30.17 179.48 29.33C178.64 28.47 177.97 27.47 177.47 26.33C176.97 25.17 176.72 23.94 176.72 22.64ZM198.088 28.94H208.588C209.408 28.94 210.008 28.72 210.388 28.28C210.768 27.82 210.958 27.24 210.958 26.54C210.958 25.94 210.778 25.44 210.418 25.04C210.078 24.62 209.518 24.33 208.738 24.17V21.08C209.478 21.08 210.178 21.23 210.838 21.53C211.518 21.81 212.108 22.2 212.608 22.7C213.108 23.2 213.508 23.78 213.808 24.44C214.108 25.1 214.258 25.8 214.258 26.54C214.258 27.36 214.128 28.11 213.868 28.79C213.608 29.45 213.248 30.02 212.788 30.5C212.348 30.98 211.828 31.35 211.228 31.61C210.628 31.87 209.998 32 209.338 32H198.088V28.94ZM213.958 16.34H203.398C202.598 16.34 202.008 16.57 201.628 17.03C201.248 17.49 201.058 18.06 201.058 18.74C201.058 19.36 201.228 19.88 201.568 20.3C201.928 20.7 202.498 20.98 203.278 21.14V24.2C202.518 24.2 201.808 24.06 201.148 23.78C200.488 23.48 199.908 23.08 199.408 22.58C198.908 22.08 198.508 21.5 198.208 20.84C197.928 20.18 197.788 19.48 197.788 18.74C197.788 17.92 197.918 17.18 198.178 16.52C198.438 15.84 198.788 15.26 199.228 14.78C199.668 14.3 200.178 13.93 200.758 13.67C201.358 13.41 201.998 13.28 202.678 13.28H213.958V16.34Z" fill="white"/>
<path d="M228.642 32V13.28H231.852V28.94H242.892V32H228.642ZM245.344 32L255.664 11.45L265.894 32H251.014L253.114 28.91H260.644L255.664 18.65L249.034 32H245.344ZM268.487 32V13.28H280.007C280.667 13.28 281.297 13.43 281.897 13.73C282.497 14.01 283.017 14.41 283.457 14.93C283.917 15.45 284.277 16.07 284.537 16.79C284.817 17.49 284.957 18.25 284.957 19.07C284.957 19.87 284.797 20.57 284.477 21.17C284.157 21.77 283.817 22.28 283.457 22.7C283.817 23.14 284.157 23.65 284.477 24.23C284.797 24.81 284.957 25.47 284.957 26.21C284.957 27.03 284.817 27.8 284.537 28.52C284.277 29.22 283.917 29.83 283.457 30.35C283.017 30.87 282.497 31.28 281.897 31.58C281.297 31.86 280.667 32 280.007 32H268.487ZM276.527 21.08H280.427C280.747 20.8 281.017 20.48 281.237 20.12C281.477 19.74 281.597 19.38 281.597 19.04C281.597 18.74 281.547 18.44 281.447 18.14C281.367 17.82 281.237 17.53 281.057 17.27C280.897 16.99 280.697 16.77 280.457 16.61C280.217 16.43 279.947 16.34 279.647 16.34H271.697V28.94H279.707C280.007 28.94 280.277 28.86 280.517 28.7C280.757 28.52 280.957 28.3 281.117 28.04C281.277 27.76 281.397 27.47 281.477 27.17C281.557 26.85 281.597 26.54 281.597 26.24C281.597 25.9 281.477 25.54 281.237 25.16C281.017 24.78 280.737 24.45 280.397 24.17H276.527V21.08Z" fill="#FF0000"/>
</svg>
